#!OML:ASF F:\VICON\USERDATA\INSTALL\SteveWalk\SteveWalk.ASF
:FULLY-SPECIFIED
:DEGREES
92
root -0.533977 15.9219 -25.6038 17.5082 7.04498 0.556688
lowerback -15.3755 -2.42346 0.466645
upperback -4.73135 -3.33581 1.66437
thorax 3.66351 -1.64298 0.875839
lowerneck -4.19263 -1.3656 0.436124
upperneck 7.71206 -1.80436 -0.736724
head 3.19324 -0.910474 -0.387896
rclavicle -2.87368e-014 -1.86858e-014
rhumerus -93.4145 -38.5772 1.65292
rradius 11.0214
rwrist 60.1871
rhand -13.6347 -33.9239
rfingers 7.12502
rthumb 12.4813 -63.5311
lclavicle -2.87368e-014 -1.86858e-014
lhumerus -17.2332 1.28321 80.1211
lradius 49.9373
lwrist 11.6577
lhand -23.3589 -19.8705
lfingers 7.12502
lthumb 3.09646 10.0868
rfemur -52.2652 -2.17562 23.8651
rtibia 34.3729
rfoot -3.95902 1.40206
rtoes -20.6656
lfemur -0.170154 -1.51069 -20.5685
ltibia 28.5711
lfoot -15.5486 -9.77605
ltoes -35.431
93
root -0.523481 15.9399 -25.3795 17.4171 6.5566 0.239765
lowerback -15.2866 -2.26334 0.994433
upperback -4.741 -3.20823 1.77512
thorax 3.58141 -1.58015 0.722282
lowerneck -4.25635 -1.22169 0.530203
upperneck 7.70472 -1.59594 -1.01953
head 3.20152 -0.81513 -0.48828
rclavicle 2.53078e-014 1.98785e-015
rhumerus -93.2171 -39.1628 1.74941
rradius 11.0215
rwrist 60.6162
rhand -13.9648 -33.9848
rfingers 7.12502
rthumb 12.163 -63.6112
lclavicle 2.53078e-014 1.98785e-015
lhumerus -18.4905 1.70379 80.162
lradius 50.6506
lwrist 12.2555
lhand -23.8787 -19.8726
lfingers 7.12502
lthumb 2.59452 10.0914
rfemur -52.0381 -1.87309 24.3075
rtibia 35.6998
rfoot -4.87608 1.94404
rtoes -20.3806
lfemur -1.10104 -1.27646 -20.3338
ltibia 31.3491
lfoot -11.7623 -11.7526
ltoes -30.6495
94
root -0.51396 15.9645 -25.1512 17.3311 5.94253 -0.0170247
lowerback -15.2022 -2.07073 1.44317
upperback -4.78361 -3.02158 1.83224
thorax 3.46944 -1.48888 0.567644
lowerneck -4.24968 -1.06979 0.614256
upperneck 7.81083 -1.37984 -1.24372
head 3.23695 -0.714051 -0.567948
rclavicle -1.80521e-014 1.86858e-014
rhumerus -93.146 -39.6693 1.97541
rradius 11.0132
rwrist 61.1343
rhand -14.1122 -33.8123
rfingers 7.12502
rthumb 12.0209 -63.4471
lclavicle -1.80521e-014 1.86858e-014
lhumerus -19.7718 2.10891 80.1626
lradius 51.1693
lwrist 12.8039
lhand -24.4662 -20.0675
lfingers 7.12502
lthumb 2.0271 9.90262
rfemur -51.6651 -1.44346 24.559
rtibia 36.7976
rfoot -5.56844 2.50216
rtoes -15.2074
lfemur -2.2453 -0.765562 -20.1784
ltibia 34.2177
lfoot -4.54504 -13.0822
ltoes -14.6806
95
root -0.506185 15.9901 -24.9191 17.4233 5.33277 -0.143683
lowerback -15.3166 -1.89799 1.6959
upperback -4.8487 -2.83535 1.87935
thorax 3.45168 -1.39715 0.505494
lowerneck -4.11655 -1.04392 0.625179
upperneck 7.79508 -1.32973 -1.4418
head 3.20554 -0.696082 -0.630853
rclavicle -1.68408e-014 5.56597e-015
rhumerus -92.8983 -40.243 1.91525
rradius 11.001
rwrist 61.3842
rhand -14.1773 -33.7807
rfingers 7.12502
rthumb 11.9581 -63.4191
lclavicle -1.68408e-014 5.56597e-015
lhumerus -20.8782 2.3825 80.2304
lradius 51.4271
lwrist 13.2998
lhand -24.5313 -19.9898
lfingers 7.12502
lthumb 1.96428 9.98092
rfemur -51.3462 -1.20987 24.8113
rtibia 37.6629
rfoot -6.48904 2.83004
rtoes -13.2995
lfemur -3.68194 -0.307562 -20.1559
ltibia 37.0777
lfoot 0.136035 -13.311
ltoes -9.72769
96
root -0.499432 16.0224 -24.69 17.4898 5.09333 -0.161578
lowerback -15.3924 -1.86353 1.83046
upperback -4.87925 -2.81506 1.95359
thorax 3.45723 -1.38709 0.509332
lowerneck -4.16171 -1.00609 0.593727
upperneck 7.83989 -1.26289 -1.61007
head 3.22986 -0.670495 -0.678355
rclavicle -3.29237e-015 1.55052e-014
rhumerus -90.9694 -40.8551 -0.701346
rradius 11.0243
rwrist 59.6765
rhand -14.4204 -34.403
rfingers 7.12502
rthumb 11.7237 -64.055
lclavicle -3.29237e-015 1.55052e-014
lhumerus -21.8222 2.62398 80.372
lradius 51.5185
lwrist 13.7192
lhand -24.5526 -19.6351
lfingers 7.12502
lthumb 1.94366 10.3358
rfemur -50.8572 -1.50148 25.1709
rtibia 38.3214
rfoot -7.61116 3.04746
rtoes -14.4387
lfemur -5.18456 -0.187496 -20.1245
ltibia 39.9093
lfoot 4.73421 -13.2583
ltoes -6.03122
97
root -0.493971 16.0557 -24.4639 17.3511 5.26247 -0.19394
lowerback -15.2703 -1.9151 2.08126
upperback -4.85362 -2.9187 1.98321
thorax 3.40745 -1.43905 0.384631
lowerneck -4.39843 -0.948691 0.628722
upperneck 7.98659 -1.17927 -1.71043
head 3.32653 -0.632996 -0.717563
rclavicle 2.5196e-014 -1.03368e-014
rhumerus -88.2882 -41.3736 -4.69712
rradius 11.1556
rwrist 56.8757
rhand -14.6854 -35.0124
rfingers 7.12502
rthumb 11.4682 -64.6787
lclavicle 2.5196e-014 -1.03368e-014
lhumerus -22.758 2.73071 80.4643
lradius 51.5726
lwrist 14.111
lhand -24.2938 -19.4223
lfingers 7.12502
lthumb 2.1936 10.5461
rfemur -50.048 -2.11458 25.5903
rtibia 38.7806
rfoot -8.67241 3.41374
rtoes -14.4176
lfemur -6.56485 -0.290847 -19.9633
ltibia 42.7086
lfoot 8.07289 -13.7837
ltoes -9.94133
98
root -0.492724 16.0834 -24.2405 17.2139 5.36341 -0.171723
lowerback -15.1066 -1.88368 2.21062
upperback -4.8894 -2.88768 1.94327
thorax 3.27353 -1.4256 0.282252
lowerneck -4.44656 -0.975628 0.633246
upperneck 8.13315 -1.21655 -1.68344
head 3.38612 -0.650775 -0.713
rclavicle 1.9456e-014 7.95139e-016
rhumerus -86.4855 -41.8576 -7.57159
rradius 11.3682
rwrist 54.9037
rhand -14.272 -35.3785
rfingers 7.12502
rthumb 11.8669 -65.0222
lclavicle 1.9456e-014 7.95139e-016
lhumerus -23.6847 2.64465 80.6475
lradius 51.494
lwrist 14.3302
lhand -23.8164 -19.2253
lfingers 7.12502
lthumb 2.65463 10.7379
rfemur -49.1719 -2.59383 25.8794
rtibia 39.0405
rfoot -9.54198 3.67448
rtoes -14.1983
lfemur -7.93169 -0.442517 -19.8709
ltibia 45.5082
lfoot 10.8588 -14.4256
ltoes -13.259
99
root -0.490374 16.119 -24.0187 17.1715 5.42183 -0.167458
lowerback -15.0626 -1.82741 2.28788
upperback -4.93657 -2.82168 1.95208
thorax 3.1974 -1.39391 0.262147
lowerneck -4.39687 -1.01974 0.506546
upperneck 8.18673 -1.27292 -1.5932
head 3.39535 -0.679004 -0.663669
rclavicle 6.90777e-015 -1.19271e-014
rhumerus -83.8713 -42.1367 -11.5035
rradius 11.6658
rwrist 52.2238
rhand -13.7309 -35.7988
rfingers 7.12502
rthumb 12.3885 -65.4117
lclavicle 6.90777e-015 -1.19271e-014
lhumerus -24.4735 2.70948 80.9772
lradius 51.2264
lwrist 14.2886
lhand -23.5207 -18.938
lfingers 7.12502
lthumb 2.94021 11.0215
rfemur -48.2768 -3.00918 26.1229
rtibia 39.1459
rfoot -10.2601 3.77396
rtoes -13.2872
lfemur -9.44045 -0.663795 -19.76
ltibia 48.3558
lfoot 13.9334 -14.5208
ltoes -12.0995
100
root -0.485208 16.1629 -23.7979 17.0836 5.72254 -0.381852
lowerback -15.0727 -1.79072 2.62331
upperback -4.9202 -2.8259 2.03785
thorax 3.20755 -1.39578 0.162192
lowerneck -4.53429 -1.08349 0.380439
upperneck 8.25821 -1.34805 -1.59126
head 3.44656 -0.720703 -0.646235
rclavicle -1.51201e-014 1.74931e-014
rhumerus -80.4421 -42.0926 -16.5892
rradius 11.9915
rwrist 48.44
rhand -14.0821 -35.7473
rfingers 7.12502
rthumb 12.05 -65.3803
lclavicle -1.51201e-014 1.74931e-014
lhumerus -25.2032 2.76353 81.3723
lradius 50.8567
lwrist 14.115
lhand -23.1641 -18.757
lfingers 7.12502
lthumb 3.28461 11.1974
rfemur -47.2402 -3.58541 26.6031
rtibia 39.1681
rfoot -11.0591 3.92339
rtoes -11.6276
lfemur -11.0217 -0.919872 -19.3394
ltibia 51.2422
lfoot 16.3962 -14.4818
ltoes -12.9805
